<!DOCTYPE svg PUBLIC "-//W3C//DTD SVG 1.1//EN" "http://www.w3.org/Graphics/SVG/1.1/DTD/svg11.dtd">
<!-- Uploaded to: SVG Repo, www.svgrepo.com, Transformed by: SVG Repo Mixer Tools -->
<svg fill="#000000" width="800px" height="800px" viewBox="-3.2 -3.2 38.40 38.40" id="icon" xmlns="http://www.w3.org/2000/svg">
<g id="SVGRepo_bgCarrier" stroke-width="0">
<rect x="-3.2" y="-3.2" width="38.40" height="38.40" rx="19.2" fill="#66FCF1" strokewidth="0"/>
</g>
<g id="SVGRepo_tracerCarrier" stroke-linecap="round" stroke-linejoin="round"/>
<g id="SVGRepo_iconCarrier">
<defs>
<style>.cls-1{fill:none;}</style>
</defs>
<title>datastore</title>
<circle cx="23" cy="23" r="1"/>
<rect x="8" y="22" width="12" height="2"/>
<circle cx="23" cy="9" r="1"/>
<rect x="8" y="8" width="12" height="2"/>
<path d="M26,14a2,2,0,0,0,2-2V6a2,2,0,0,0-2-2H6A2,2,0,0,0,4,6v6a2,2,0,0,0,2,2H8v4H6a2,2,0,0,0-2,2v6a2,2,0,0,0,2,2H26a2,2,0,0,0,2-2V20a2,2,0,0,0-2-2H24V14ZM6,6H26v6H6ZM26,26H6V20H26Zm-4-8H10V14H22Z"/>
<rect id="_Transparent_Rectangle_" data-name="&lt;Transparent Rectangle&gt;" class="cls-1" width="32" height="32"/>
</g>
</svg>