<!DOCTYPE svg PUBLIC "-//W3C//DTD SVG 1.1//EN" "http://www.w3.org/Graphics/SVG/1.1/DTD/svg11.dtd">
<!-- Uploaded to: SVG Repo, www.svgrepo.com, Transformed by: SVG Repo Mixer Tools -->
<svg width="800px" height="800px" viewBox="-9.86 -9.86 53.72 53.72" version="1.1" xmlns="http://www.w3.org/2000/svg" xmlns:xlink="http://www.w3.org/1999/xlink" fill="#000000">
<g id="SVGRepo_bgCarrier" stroke-width="0">
<rect x="-9.86" y="-9.86" width="53.72" height="53.72" rx="26.86" fill="#66FCF1" strokewidth="0"/>
</g>
<g id="SVGRepo_tracerCarrier" stroke-linecap="round" stroke-linejoin="round"/>
<g id="SVGRepo_iconCarrier"> <!-- Uploaded to: SVG Repo, www.svgrepo.com, Transformed by: SVG Repo Mixer Tools --> <title>website</title> <desc>Created with Sketch.</desc> <defs> </defs> <g id="Vivid.JS" stroke-width="0.00034" fill="none" fill-rule="evenodd"> <g id="Vivid-Icons" transform="translate(-44.000000, -491.000000)"> <g id="Icons" transform="translate(37.000000, 169.000000)"> <g id="website" transform="translate(0.000000, 312.000000)"> <g transform="translate(7.000000, 10.000000)"> <rect id="Rectangle-path" fill="#1F2833" fill-rule="nonzero" x="0" y="0" width="34" height="28"> </rect> <path d="M0,0 L34,0 L34,3 L0,3 L0,0 Z M4,7 L30,7 L30,12 L4,12 L4,7 Z M4,16 L12,16 L12,24 L4,24 L4,16 Z M15,16 L30,16 L30,19 L15,19 L15,16 Z M15,21 L23,21 L23,24 L15,24 L15,21 Z" id="Shape" fill="#66FCF1"> </path> </g> </g> </g> </g> </g> </g>
</svg>