<!DOCTYPE svg PUBLIC "-//W3C//DTD SVG 1.1//EN" "http://www.w3.org/Graphics/SVG/1.1/DTD/svg11.dtd">
<!-- Uploaded to: SVG Repo, www.svgrepo.com, Transformed by: SVG Repo Mixer Tools -->
<svg fill="#000000" version="1.1" id="Layer_1" xmlns="http://www.w3.org/2000/svg" xmlns:xlink="http://www.w3.org/1999/xlink" viewBox="-158.72 -158.72 829.44 829.44" xml:space="preserve" width="220px" height="220px">
<g id="SVGRepo_bgCarrier" stroke-width="0" transform="translate(0,0), scale(1)">
<rect x="-158.72" y="-158.72" width="829.44" height="829.44" rx="414.72" fill="#ffffff" strokewidth="0"/>
</g>
<g id="SVGRepo_tracerCarrier" stroke-linecap="round" stroke-linejoin="round" stroke="#CCCCCC" stroke-width="1.024"/>
<g id="SVGRepo_iconCarrier"> <g> <g> <rect x="107.802" y="256.784" width="28.212" height="28.212"/> </g> </g> <g> <g> <rect x="160.569" y="256.784" width="28.212" height="28.212"/> </g> </g> <g> <g> <rect x="213.337" y="256.784" width="28.212" height="28.212"/> </g> </g> <g> <g> <rect x="266.104" y="256.784" width="28.212" height="28.212"/> </g> </g> <g> <g> <rect x="318.872" y="256.784" width="28.212" height="28.212"/> </g> </g> <g> <g> <rect x="371.639" y="256.784" width="28.212" height="28.212"/> </g> </g> <g> <g> <rect x="107.802" y="307.984" width="28.212" height="28.212"/> </g> </g> <g> <g> <rect x="160.569" y="307.984" width="28.212" height="28.212"/> </g> </g> <g> <g> <rect x="213.337" y="307.984" width="28.212" height="28.212"/> </g> </g> <g> <g> <rect x="266.104" y="307.984" width="28.212" height="28.212"/> </g> </g> <g> <g> <rect x="318.872" y="307.984" width="28.212" height="28.212"/> </g> </g> <g> <g> <rect x="371.639" y="307.984" width="28.212" height="28.212"/> </g> </g> <g> <g> <rect x="136.359" y="144.593" width="28.212" height="28.212"/> </g> </g> <g> <g> <rect x="189.127" y="144.593" width="28.212" height="28.212"/> </g> </g> <g> <g> <rect x="241.894" y="144.593" width="28.212" height="28.212"/> </g> </g> <g> <g> <rect x="294.661" y="144.593" width="28.212" height="28.212"/> </g> </g> <g> <g> <rect x="347.429" y="144.593" width="28.212" height="28.212"/> </g> </g> <g> <g> <path d="M463.935,459.134V198.661h-23.736v-82.547h35.313V84.767h-35.313h-60.988V21.519H132.79v63.249H71.801h-31.99v31.347 h31.99v82.547H48.065v260.473H0v31.347h48.065h163.738h88.395h163.737H512v-31.347H463.935z M164.136,52.866h183.728v31.902 H164.136V52.866z M103.148,116.114h29.642h246.421h29.641v82.547H103.148V116.114z M268.851,459.134H243.15v-64.43h25.701V459.134 z M432.588,459.134h-132.39v-95.777h-88.395v95.777H79.412V230.008h353.176V459.134z"/> </g> </g> </g>
</svg>